<svg width="151" height="23" viewBox="0 0 151 23" fill="none" xmlns="http://www.w3.org/2000/svg">
<path d="M10.7373 22.3076C8.61816 22.3076 6.81152 21.8682 5.31738 20.9893C3.82324 20.1104 2.67578 18.8896 1.875 17.3271C1.08398 15.7646 0.688477 13.9531 0.688477 11.8926V11.1602C0.688477 9.03125 1.08398 7.15625 1.875 5.53516C2.66602 3.91406 3.78418 2.64941 5.22949 1.74121C6.68457 0.823242 8.40332 0.364258 10.3857 0.364258C11.9189 0.364258 13.3594 0.574219 14.707 0.994141C16.0547 1.41406 17.2266 2.04395 18.2227 2.88379V7.61523H15.0586L14.458 4.75879C14.0771 4.42676 13.5645 4.16309 12.9199 3.96777C12.2754 3.7627 11.5381 3.66016 10.708 3.66016C9.5166 3.66016 8.48633 3.97754 7.61719 4.6123C6.75781 5.2373 6.09863 6.11133 5.63965 7.23438C5.18066 8.34766 4.95117 9.64648 4.95117 11.1309V11.8926C4.95117 13.3379 5.17578 14.5977 5.625 15.6719C6.08398 16.7363 6.75293 17.5615 7.63184 18.1475C8.51074 18.7334 9.58984 19.0264 10.8691 19.0264C11.6211 19.0264 12.3096 18.958 12.9346 18.8213C13.5693 18.6748 14.0918 18.499 14.502 18.2939V14.6758L11.4551 14.4414V11.4385H18.7939V20.0664C17.8467 20.7402 16.7041 21.2822 15.3662 21.6924C14.0381 22.1025 12.4951 22.3076 10.7373 22.3076ZM28.6377 22.3076C27.124 22.3076 25.8008 21.9756 24.668 21.3115C23.5352 20.6377 22.6562 19.7148 22.0312 18.543C21.416 17.3711 21.1084 16.0332 21.1084 14.5293V13.9434C21.1084 12.3711 21.4014 10.9795 21.9873 9.76855C22.5732 8.54785 23.3984 7.59082 24.4629 6.89746C25.5371 6.19434 26.8018 5.84766 28.2568 5.85742C29.6924 5.85742 30.8984 6.14062 31.875 6.70703C32.8516 7.27344 33.5938 8.08887 34.1016 9.15332C34.6094 10.2178 34.8633 11.5068 34.8633 13.0205V15.3496H25.5469L25.5176 15.4375C25.5762 16.1309 25.7471 16.751 26.0303 17.2979C26.3232 17.835 26.7334 18.2598 27.2607 18.5723C27.7881 18.875 28.4277 19.0264 29.1797 19.0264C29.9609 19.0264 30.6885 18.9287 31.3623 18.7334C32.0459 18.5283 32.71 18.2305 33.3545 17.8398L34.5117 20.4766C33.8574 21.0039 33.0322 21.4434 32.0361 21.7949C31.0498 22.1367 29.917 22.3076 28.6377 22.3076ZM25.5762 12.5225H30.8643V12.1416C30.8643 11.4971 30.7764 10.9453 30.6006 10.4863C30.4346 10.0176 30.1611 9.65625 29.7803 9.40234C29.4092 9.14844 28.9258 9.02148 28.3301 9.02148C27.7637 9.02148 27.2852 9.17285 26.8945 9.47559C26.5039 9.76855 26.1963 10.1738 25.9717 10.6914C25.7568 11.209 25.6104 11.7949 25.5322 12.4492L25.5762 12.5225ZM43.667 22.3076C42.4854 22.3076 41.3818 22.1953 40.3564 21.9707C39.3408 21.7461 38.3643 21.4238 37.4268 21.0039L37.3828 16.5215H40.3564L40.9277 18.8066C41.2598 18.9727 41.6211 19.1045 42.0117 19.2021C42.4121 19.2998 42.8662 19.3486 43.374 19.3486C44.3311 19.3486 45.0049 19.1924 45.3955 18.8799C45.7861 18.5674 45.9814 18.1768 45.9814 17.708C45.9814 17.2686 45.7715 16.8828 45.3516 16.5508C44.9414 16.209 44.1162 15.9111 42.876 15.6572C41.001 15.2666 39.6191 14.6611 38.7305 13.8408C37.8418 13.0205 37.3975 11.9707 37.3975 10.6914C37.3975 9.8125 37.6172 9.01172 38.0566 8.28906C38.5059 7.56641 39.1846 6.98535 40.0928 6.5459C41.0107 6.10645 42.1826 5.88672 43.6084 5.88672C44.7998 5.88672 45.8887 6.00391 46.875 6.23828C47.8711 6.46289 48.7061 6.76074 49.3799 7.13184L49.4238 11.4678H46.4648L46.0107 9.3877C45.7471 9.19238 45.4346 9.0459 45.0732 8.94824C44.7217 8.85059 44.3213 8.80176 43.8721 8.80176C43.1201 8.80176 42.5439 8.95312 42.1436 9.25586C41.7432 9.55859 41.543 9.94922 41.543 10.4277C41.543 10.7012 41.6113 10.9551 41.748 11.1895C41.8945 11.4238 42.1777 11.6436 42.5977 11.8486C43.0176 12.0537 43.6279 12.249 44.4287 12.4346C46.3916 12.8838 47.8223 13.4844 48.7207 14.2363C49.6191 14.9785 50.0684 16.0234 50.0684 17.3711C50.0684 18.8457 49.5312 20.0371 48.457 20.9453C47.3926 21.8535 45.7959 22.3076 43.667 22.3076ZM58.2422 22.3076C56.7676 22.3076 55.6299 21.9023 54.8291 21.0918C54.0381 20.2812 53.6426 18.9971 53.6426 17.2393V9.15332H51.46V6.15039H53.6426V2.26855H57.9053V6.15039H60.8203V9.15332H57.9053V17.2246C57.9053 17.8398 58.0322 18.2793 58.2861 18.543C58.5498 18.8066 58.9062 18.9385 59.3555 18.9385C59.5996 18.9385 59.8535 18.9238 60.1172 18.8945C60.3906 18.8555 60.625 18.8164 60.8203 18.7773L61.1865 21.8682C60.7471 21.9951 60.2686 22.0977 59.751 22.1758C59.2432 22.2637 58.7402 22.3076 58.2422 22.3076ZM70.0049 22.3076C68.4424 22.3076 67.0996 21.9658 65.9766 21.2822C64.8535 20.5986 63.9941 19.6514 63.3984 18.4404C62.8027 17.2197 62.5049 15.8184 62.5049 14.2363V13.9287C62.5049 12.3564 62.8027 10.9648 63.3984 9.75391C63.9941 8.5332 64.8486 7.58105 65.9619 6.89746C67.085 6.2041 68.4229 5.85742 69.9756 5.85742C71.5479 5.85742 72.8906 6.2041 74.0039 6.89746C75.1172 7.58105 75.9717 8.52832 76.5674 9.73926C77.1631 10.9502 77.4609 12.3467 77.4609 13.9287V14.2363C77.4609 15.8184 77.1631 17.2197 76.5674 18.4404C75.9717 19.6514 75.1172 20.5986 74.0039 21.2822C72.8906 21.9658 71.5576 22.3076 70.0049 22.3076ZM70.0049 19.0264C70.7471 19.0264 71.3525 18.8262 71.8213 18.4258C72.29 18.0254 72.6367 17.4688 72.8613 16.7559C73.0859 16.0332 73.1982 15.1934 73.1982 14.2363V13.9287C73.1982 12.9912 73.0859 12.166 72.8613 11.4531C72.6367 10.7305 72.2852 10.1689 71.8066 9.76855C71.3379 9.3584 70.7275 9.15332 69.9756 9.15332C69.2432 9.15332 68.6377 9.3584 68.1592 9.76855C67.6807 10.1689 67.3291 10.7305 67.1045 11.4531C66.8896 12.166 66.7822 12.9912 66.7822 13.9287V14.2363C66.7822 15.1934 66.8896 16.0332 67.1045 16.7559C67.3291 17.4785 67.6807 18.04 68.1592 18.4404C68.6377 18.8311 69.2529 19.0264 70.0049 19.0264ZM79.7021 22V19.4365L81.7529 18.9971V9.16797L79.4824 8.72852V6.15039H85.7373L85.8984 8.11328L85.9277 8.46484C86.3184 7.60547 86.8018 6.95605 87.3779 6.5166C87.9541 6.07715 88.6426 5.85742 89.4434 5.85742C89.6973 5.85742 89.9756 5.88184 90.2783 5.93066C90.5811 5.96973 90.8496 6.02344 91.084 6.0918L90.6299 10.0322L88.5059 9.91504C87.9004 9.88574 87.4072 9.98828 87.0264 10.2227C86.6553 10.457 86.3232 10.7939 86.0303 11.2334V18.9971L88.0811 19.4365V22H79.7021Z" fill="white"/>
<path d="M92.2559 22V19.4365L94.5264 18.9971V3.68945L92.2559 3.25V0.671875H94.5264H98.8037H101.382V3.25L98.8037 3.68945V18.7188H104.824L105.029 15.5986H108.296V22H92.2559ZM109.614 22V19.4365L111.138 19.2168L117.92 0.671875H122.3L129.038 19.2168L130.562 19.4365V22H123.296V19.4365L124.775 19.1729L123.838 16.2432H116.338L115.4 19.1729L116.88 19.4365V22H109.614ZM117.349 13.0938H122.827L120.337 5.78418L120.132 5.13965H120.044L119.824 5.82812L117.349 13.0938ZM131.982 22V19.4365L134.253 18.9971V3.68945L131.982 3.25V0.671875H134.253H141.46C143.97 0.671875 145.928 1.16016 147.334 2.13672C148.74 3.11328 149.443 4.57324 149.443 6.5166C149.443 7.50293 149.18 8.38672 148.652 9.16797C148.135 9.93945 147.378 10.5205 146.382 10.9111C147.231 11.0967 147.939 11.4238 148.506 11.8926C149.082 12.3613 149.512 12.9326 149.795 13.6064C150.078 14.2705 150.22 14.998 150.22 15.7891C150.22 17.8301 149.546 19.3779 148.198 20.4326C146.851 21.4775 144.941 22 142.471 22H131.982ZM138.53 18.7188H142.471C143.604 18.7188 144.468 18.4746 145.063 17.9863C145.659 17.4883 145.957 16.7559 145.957 15.7891C145.957 15.0859 145.845 14.4951 145.62 14.0166C145.396 13.5381 145.049 13.1768 144.58 12.9326C144.121 12.6885 143.525 12.5664 142.793 12.5664H138.53V18.7188ZM138.53 9.60742H141.606C142.749 9.60742 143.628 9.37305 144.243 8.9043C144.858 8.43555 145.166 7.75195 145.166 6.85352C145.166 5.86719 144.854 5.13965 144.229 4.6709C143.613 4.20215 142.69 3.96777 141.46 3.96777H138.53V9.60742Z" fill="#5621EF"/>
</svg>
